<?xml version="1.0" standalone="no"?>
<svg xmlns="http://www.w3.org/2000/svg" viewBox="0 0 98.873 114.168" width="98.873" height="114.168"><polygon fill="none" stroke="#ffffff" stroke-width="3" points="97.373,29.292 97.373,84.876 49.4365,112.668 1.5,84.876 1.5,29.292 49.4365,1.5"></polygon><path fill="#221f28" fill-rule="nonzero" d="M13.19 20.83L9.80 21.17L3.67 8.04L3.67 20.83L0 21L0 0.17L4.28 0L9.72 12.49L9.72 0.34L13.19 0L13.19 20.83Z" transform="translate(42.843, 22.5)"></path><g fill="#221f28" color="#221f28" transform="translate(31.323292452830188 51.668) scale(0.754717)"><svg width="48.0" height="53.0" x="0.0" y="0.0" viewBox="0 0 48 53"><path fill="currentColor" fill-rule="evenodd" d="M37.438 36.432c-1.614 1.086-2.725.974-3.506.532a38.361 38.361 0 0 1 9.177-9.947c-.351 2.954-2.689 7.41-5.67 9.415zm-26.876 0c-2.982-2.004-5.32-6.46-5.67-9.415a38.36 38.36 0 0 1 9.176 9.947c-.781.442-1.892.554-3.506-.532zm34.317-14.22l-1.436.955a41.329 41.329 0 0 0-11.44 11.386c-.204-.704-.076-1.343.197-2.01.641-1.559 2.25-3.393 4.114-5.518 1.574-1.795 3.405-3.882 5.136-6.357l.001.001c.086-.119.167-.238.246-.357a39.007 39.007 0 0 0 2.249-3.69C46.674 11.508 48 6.071 48 0h-2.945c0 5.402-1.166 9.814-2.86 13.508a31.88 31.88 0 0 0-.833-1.84c-.858-1.792-1.744-3.646-1.744-6.022h-2.945c0 3.044 1.126 5.4 2.032 7.293 1.183 2.474 1.735 3.824.62 5.617-1.16 1.709-2.388 3.233-3.571 4.622-.349-1.304-.996-2.543-1.677-3.845-1.04-1.99-2.117-4.05-2.117-6.44h-2.945c0 3.114 1.302 5.606 2.452 7.805 1.515 2.897 2.244 4.506.872 6.423-1.259 1.504-2.287 2.902-2.863 4.304-.885 2.155-.64 4.132.752 6.015a40.845 40.845 0 0 0-3.96 9.941L24 49.064l-2.268-1.683a40.84 40.84 0 0 0-3.96-9.94c1.393-1.884 1.637-3.86.752-6.016-.576-1.402-1.604-2.8-2.863-4.304-1.372-1.917-.643-3.525.872-6.423 1.15-2.2 2.452-4.691 2.452-7.804H16.04c0 2.39-1.076 4.448-2.117 6.44-.68 1.301-1.328 2.54-1.677 3.844-1.183-1.389-2.41-2.913-3.572-4.622-1.114-1.793-.562-3.143.621-5.617.906-1.893 2.032-4.249 2.032-7.292H8.382c0 2.375-.886 4.229-1.744 6.022a31.777 31.777 0 0 0-.832 1.84C4.11 9.813 2.946 5.401 2.946 0H0c0 6.07 1.326 11.508 4.054 16.622a38.962 38.962 0 0 0 2.249 3.69c.078.119.16.238.246.357 1.732 2.474 3.563 4.561 5.137 6.356 1.864 2.125 3.473 3.96 4.114 5.519.273.666.4 1.305.196 2.009a41.332 41.332 0 0 0-11.44-11.386l-1.435-.956-.719 1.568c-.888 1.937-.561 4.873.899 8.054 1.357 2.958 3.457 5.59 5.617 7.043 2.33 1.567 4.666 1.768 6.635.63a38.21 38.21 0 0 1 3.444 9.085l.125.52L24 52.732l4.878-3.62.125-.52a38.213 38.213 0 0 1 3.444-9.086c1.969 1.139 4.304.938 6.634-.629 2.161-1.452 4.261-4.085 5.618-7.043 1.46-3.18 1.787-6.117.898-8.054l-.718-1.568z"></path></svg></g></svg>